<svg xmlns="http://www.w3.org/2000/svg" version="1.1" xmlns:xlink="http://www.w3.org/1999/xlink" xmlns:svgjs="http://svgjs.dev/svgjs" width="1500" height="477" viewBox="0 0 1500 477"><g transform="matrix(1,0,0,1,-0.9090909090909918,0.9066706548436514)"><svg viewBox="0 0 396 126" data-background-color="#ffffff" preserveAspectRatio="xMidYMid meet" height="477" width="1500" xmlns="http://www.w3.org/2000/svg" xmlns:xlink="http://www.w3.org/1999/xlink"><g id="tight-bounds" transform="matrix(1,0,0,1,0.2400000000000091,-0.23949790882662114)"><svg viewBox="0 0 395.52 126.47899581765324" height="126.47899581765324" width="395.52"><g><svg viewBox="0 0 671.7459610663866 214.81026142860276" height="126.47899581765324" width="395.52"><g transform="matrix(1,0,0,1,276.2259610663867,15.634961421283748)"><svg viewBox="0 0 395.52 183.54033858603526" height="183.54033858603526" width="395.52"><g id="textblocktransform"><svg viewBox="0 0 395.52 183.54033858603526" height="183.54033858603526" width="395.52" id="textblock"><g><svg viewBox="0 0 395.52 130.07611878755978" height="130.07611878755978" width="395.52"><g transform="matrix(1,0,0,1,0,0)"><svg width="395.52" viewBox="2.85 -32.05 134.09 44.101961786097" height="130.07611878755978" data-palette-color="#000000"><path d="M25.6 0.8Q24.35 0.8 22.93-0.48 21.5-1.75 20.3-3.95L20.3-3.95 14.95-13.65 10.8-13.65 10.65-6.2Q10.65-4.3 10.9-3.48 11.15-2.65 11.85-2.38 12.55-2.1 14.25-2.1L14.25-2.1 14.35-1.9 13.9 0.2Q13.3 0.15 11.5 0.1 9.7 0.05 7.75 0.05L7.75 0.05Q6 0.05 4.65 0.1 3.3 0.15 2.85 0.2L2.85 0.2 3.3-2.05Q4.9-2.25 5.7-2.6 6.5-2.95 6.8-3.73 7.1-4.5 7.1-6L7.1-6 7.15-27Q7.15-28.6 6.78-29.15 6.4-29.7 5.3-29.7L5.3-29.7Q4.8-29.7 4.3-29.65 3.8-29.6 3.6-29.6L3.6-29.6 3.5-29.8 3.85-32Q4.45-31.95 6.1-31.9 7.75-31.85 9.4-31.85L9.4-31.85Q11.1-31.85 12.98-31.93 14.85-32 15.55-32.05L15.55-32.05Q20.2-32.05 22.9-29.95 25.6-27.85 25.6-24.2L25.6-24.2Q25.6-21.2 23.68-18.7 21.75-16.2 18.25-14.6L18.25-14.6 23.75-5.9Q25.2-3.5 26.58-2.58 27.95-1.65 29.95-1.65L29.95-1.65 30.15-1.45 29.85 0.25 25.6 0.8ZM16.05-15.95Q16.05-15.8 17.55-16.6 19.05-17.4 20.25-19.05 21.45-20.7 21.45-23.3L21.45-23.3Q21.45-29.9 12.3-29.9L12.3-29.9Q11.8-29.9 11.63-29.68 11.45-29.45 11.4-28.75L11.4-28.75Q10.95-21.1 10.9-16.45L10.9-16.45 16.05-15.95ZM48.15 0.6Q44.1 0.6 43.7-3.45L43.7-3.45 43.5-3.5Q41.7-1.7 40.22-0.65 38.75 0.4 38 0.4L38 0.4Q35.2 0.4 33.4-1.35 31.6-3.1 31.6-5.8L31.6-5.8Q31.6-7.25 32.32-8.35 33.05-9.45 34.25-9.8L34.25-9.8 43.75-12.4 43.8-14.6Q43.8-17.1 42.65-18.5 41.5-19.9 39.4-19.9L39.4-19.9Q38-19.9 36.45-19.25 34.9-18.6 33.4-17.4L33.4-17.4 33.15-17.55 32.55-19.7Q34.9-21.05 37.27-22.13 39.65-23.2 40.7-23.2L40.7-23.2Q43.95-23.2 45.8-21.5 47.65-19.8 47.65-16.75L47.65-16.75Q47.65-15.65 47.3-12.25L47.3-12.25Q46.75-6.75 46.75-5.25L46.75-5.25Q46.75-4.15 47.3-3.55 47.85-2.95 48.8-2.95L48.8-2.95Q49.6-2.95 50.45-3.33 51.3-3.7 51.8-4.2L51.8-4.2 52.5-3.4Q51.75-2.15 50.57-0.98 49.4 0.2 48.15 0.6L48.15 0.6ZM38.85-3Q39.8-3 41.07-3.68 42.35-4.35 43.4-5.4L43.4-5.4 43.65-10.5 36.85-8.45Q35.4-8 35.4-6.35L35.4-6.35Q35.4-4.9 36.37-3.95 37.35-3 38.85-3L38.85-3ZM60.99 0.85Q60.24-1.55 58.02-8.58 55.79-15.6 54.89-18.3L54.89-18.3Q54.04-20.7 51.49-20.8L51.49-20.8 51.39-21 51.69-22.65 55.84-22.6Q57.74-22.6 59.54-22.75 61.34-22.9 61.84-22.95L61.84-22.95 61.94-22.7 61.64-21.15Q59.94-21.1 59.32-20.83 58.69-20.55 58.69-19.85L58.69-19.85Q58.69-18.95 60.49-12.73 62.29-6.5 62.94-4.3L62.94-4.3 63.14-4.3 65.89-11Q67.25-14.3 68.14-16.65 69.05-19 69.05-19.6L69.05-19.6Q69.05-20.25 68.57-20.53 68.09-20.8 66.89-20.8L66.89-20.8 65-20.8 64.8-21.1 65.05-22.65 70.39-22.6 74.5-22.65 74.14-20.8Q73.09-20.65 72.5-19.95 71.89-19.25 70.94-17.05L70.94-17.05 63.79 0 60.99 0.85ZM75.94 12.05Q75.54 12.05 74.64 10.88 73.74 9.7 73.74 9.2L73.74 9.2 73.99 8.85Q76.79 8.85 79.22 6.53 81.64 4.2 83.39 0L83.39 0Q79.54-12.2 77.19-18.4L77.19-18.4Q76.74-19.65 75.92-20.2 75.09-20.75 73.79-20.8L73.79-20.8 73.69-21 73.99-22.65 78.14-22.6Q79.99-22.6 81.82-22.75 83.64-22.9 84.14-22.95L84.14-22.95 84.24-22.7 83.94-21.15Q82.24-21.1 81.67-20.83 81.09-20.55 81.09-19.85L81.09-19.85Q81.09-19.05 82.07-15.7 83.04-12.35 84.09-9.03 85.14-5.7 85.49-4.7L85.49-4.7 85.69-4.7Q91.44-18.45 91.44-19.65L91.44-19.65Q91.44-20.95 89.54-20.95L89.54-20.95 87.24-20.95 87.14-21.15 87.44-22.8Q87.89-22.75 89.44-22.68 90.99-22.6 92.54-22.6L92.54-22.6 96.79-22.65 96.44-20.8Q95.34-20.6 94.77-20.03 94.19-19.45 93.64-17.95L93.64-17.95 87.29-2.75Q84.69 3.55 83.04 6.6 81.39 9.65 79.79 10.88 78.19 12.1 75.94 12.05L75.94 12.05ZM114.24 0.6Q110.19 0.6 109.79-3.45L109.79-3.45 109.59-3.5Q107.79-1.7 106.31-0.65 104.84 0.4 104.09 0.4L104.09 0.4Q101.29 0.4 99.49-1.35 97.69-3.1 97.69-5.8L97.69-5.8Q97.69-7.25 98.42-8.35 99.14-9.45 100.34-9.8L100.34-9.8 109.84-12.4 109.89-14.6Q109.89-17.1 108.74-18.5 107.59-19.9 105.49-19.9L105.49-19.9Q104.09-19.9 102.54-19.25 100.99-18.6 99.49-17.4L99.49-17.4 99.24-17.55 98.64-19.7Q100.99-21.05 103.36-22.13 105.74-23.2 106.79-23.2L106.79-23.2Q110.04-23.2 111.89-21.5 113.74-19.8 113.74-16.75L113.74-16.75Q113.74-15.65 113.39-12.25L113.39-12.25Q112.84-6.75 112.84-5.25L112.84-5.25Q112.84-4.15 113.39-3.55 113.94-2.95 114.89-2.95L114.89-2.95Q115.69-2.95 116.54-3.33 117.39-3.7 117.89-4.2L117.89-4.2 118.59-3.4Q117.84-2.15 116.67-0.98 115.49 0.2 114.24 0.6L114.24 0.6ZM104.94-3Q105.89-3 107.17-3.68 108.44-4.35 109.49-5.4L109.49-5.4 109.74-10.5 102.94-8.45Q101.49-8 101.49-6.35L101.49-6.35Q101.49-4.9 102.47-3.95 103.44-3 104.94-3L104.94-3ZM121.89-1.8Q123.39-1.95 123.89-2.78 124.39-3.6 124.39-5.95L124.39-5.95 124.39-16.95Q124.39-18.6 123.94-19.3 123.49-20 122.49-20L122.49-20Q122.09-20 121.81-19.95 121.54-19.9 121.44-19.85L121.44-19.85 121.19-20.2 121.34-21.75Q123.24-22.1 125.36-22.6 127.49-23.1 128.09-23.25L128.09-23.25 128.44-22.95Q128.34-22.5 128.14-20.88 127.94-19.25 127.99-17.8L127.99-17.8 128.19-17.65Q129.69-20 131.71-21.5 133.74-23 135.24-23L135.24-23Q135.94-23 136.31-22.93 136.69-22.85 136.79-22.8L136.79-22.8 136.94-22.6Q136.84-21.9 136.51-19.63 136.19-17.35 136.14-15.45L136.14-15.45 134.19-15.3Q134.19-17.35 133.91-18.03 133.64-18.7 132.84-18.7L132.84-18.7Q131.74-18.7 130.49-17.78 129.24-16.85 128.19-15.3L128.19-15.3Q128.14-13.85 127.99-10.5 127.84-7.15 127.79-5.1L127.79-5.1Q127.79-3.4 128.29-2.8 128.79-2.2 130.19-2.2L130.19-2.2Q130.84-2.2 131.49-2.25 132.14-2.3 132.39-2.3L132.39-2.3 132.44-2.1 131.99 0.1Q131.49 0.1 129.99 0.05 128.49 0 126.89 0L126.89 0Q125.04 0 123.54 0.08 122.04 0.15 121.64 0.2L121.64 0.2 121.89-1.8Z" opacity="1" transform="matrix(1,0,0,1,0,0)" fill="#000000" class="wordmark-text-0" data-fill-palette-color="primary" id="text-0"></path></svg></g></svg></g><g transform="matrix(1,0,0,1,0,160.78396860645174)"><svg viewBox="0 0 232.209792 22.756369979583503" height="22.756369979583503" width="232.209792"><g transform="matrix(1,0,0,1,0,0)"><svg width="232.209792" viewBox="2.75 -38 489.76 48" height="22.756369979583503" data-palette-color="#61777f"><path d="M2.75 0L2.75-2.3 6.5-2.3 6.5-32.6 2.75-32.6 2.75-34.9 28.55-34.9 28.55-26.5 24.95-26.5 24.95-32.45 10.8-32.45 10.8-18.45 20.7-18.45 20.7-22.45 23.7-22.45 23.7-12 20.7-12 20.7-16 10.8-16 10.8-2.3 15.55-2.3 15.55 0 2.75 0ZM32.55 0L32.55-2.3 36.25-2.3 36.25-22.55 32.55-23.2 32.55-24.9 40.25-26.4 40.25-21.9 40.5-21.9Q40.85-22.7 41.37-23.5 41.9-24.3 42.67-24.95 43.45-25.6 44.47-26 45.5-26.4 46.85-26.4L46.85-26.4Q49.05-26.4 50.37-25.35 51.7-24.3 51.7-22.3L51.7-22.3Q51.7-20.8 50.95-19.95 50.2-19.1 49-19.1L49-19.1Q47.65-19.1 46.85-19.83 46.05-20.55 46.05-21.7L46.05-21.7Q46.05-22.7 46.47-23.33 46.9-23.95 47.45-24.05L47.45-24.05 47.45-24.15Q47.25-24.2 46.95-24.23 46.65-24.25 46.2-24.25L46.2-24.25Q45.15-24.25 44.1-23.73 43.05-23.2 42.22-22.38 41.4-21.55 40.87-20.5 40.35-19.45 40.35-18.4L40.35-18.4 40.35-2.3 45.05-2.3 45.05 0 32.55 0ZM66.3-1.85L66.3-1.85Q68.15-1.85 69.52-2.48 70.9-3.1 71.77-4.23 72.65-5.35 73.07-6.88 73.5-8.4 73.5-10.2L73.5-10.2 73.5-15.6Q73.5-17.4 73.07-18.93 72.65-20.45 71.77-21.58 70.9-22.7 69.52-23.33 68.15-23.95 66.3-23.95L66.3-23.95Q64.4-23.95 63.05-23.33 61.7-22.7 60.82-21.58 59.95-20.45 59.52-18.93 59.1-17.4 59.1-15.6L59.1-15.6 59.1-10.2Q59.1-8.4 59.52-6.88 59.95-5.35 60.82-4.23 61.7-3.1 63.05-2.48 64.4-1.85 66.3-1.85ZM66.3 0.6L66.3 0.6Q63.65 0.6 61.45-0.35 59.25-1.3 57.7-3.08 56.15-4.85 55.3-7.33 54.45-9.8 54.45-12.9L54.45-12.9Q54.45-15.95 55.3-18.45 56.15-20.95 57.7-22.73 59.25-24.5 61.45-25.45 63.65-26.4 66.3-26.4L66.3-26.4Q68.95-26.4 71.15-25.45 73.35-24.5 74.9-22.73 76.45-20.95 77.3-18.45 78.15-15.95 78.15-12.9L78.15-12.9Q78.15-9.8 77.3-7.33 76.45-4.85 74.9-3.08 73.35-1.3 71.15-0.35 68.95 0.6 66.3 0.6ZM82.89 0L82.89-2.3 86.59-2.3 86.59-22.55 82.89-23.2 82.89-24.9 90.59-26.4 90.59-21.9 90.79-21.9Q91.09-22.65 91.72-23.45 92.34-24.25 93.27-24.9 94.19-25.55 95.44-25.98 96.69-26.4 98.19-26.4L98.19-26.4Q102.84-26.4 104.87-23.98 106.89-21.55 106.89-16.7L106.89-16.7 106.89-2.3 110.59-2.3 110.59 0 99.09 0 99.09-2.3 102.79-2.3 102.79-16.35Q102.79-23.55 96.74-23.55L96.74-23.55Q95.64-23.55 94.57-23.25 93.49-22.95 92.62-22.3 91.74-21.65 91.22-20.7 90.69-19.75 90.69-18.45L90.69-18.45 90.69-2.3 94.39-2.3 94.39 0 82.89 0ZM122.44 0.3L122.44 0.3Q119.79 0.3 118.79-0.78 117.79-1.85 117.79-4.45L117.79-4.45 117.79-23.35 114.49-23.35 114.49-25.8 114.94-25.8Q115.99-25.8 116.62-25.95 117.24-26.1 117.62-26.38 117.99-26.65 118.17-27.08 118.34-27.5 118.49-28.05L118.49-28.05 119.64-32.5 121.89-32.5 121.89-25.8 128.54-25.8 128.54-23.35 121.89-23.35 121.89-2.45 128.54-2.45 128.54-0.8Q128.09-0.55 127.42-0.35 126.74-0.15 125.92 0 125.09 0.15 124.19 0.23 123.29 0.3 122.44 0.3ZM132.29-13.5L132.29-17 145.34-17 145.34-13.5 132.29-13.5ZM151.39 0L151.39-2.3 155.14-2.3 155.14-32.6 151.39-32.6 151.39-34.9 177.19-34.9 177.19-26.5 173.59-26.5 173.59-32.45 159.44-32.45 159.44-19.2 169.34-19.2 169.34-23.2 172.34-23.2 172.34-12.75 169.34-12.75 169.34-16.75 159.44-16.75 159.44-2.45 174.09-2.45 174.09-8.85 177.69-8.85 177.69 0 151.39 0ZM183.18 0L183.18-2.3 186.88-2.3 186.88-22.55 183.18-23.2 183.18-24.9 190.88-26.4 190.88-21.9 191.08-21.9Q191.38-22.65 192.01-23.45 192.63-24.25 193.56-24.9 194.48-25.55 195.73-25.98 196.98-26.4 198.48-26.4L198.48-26.4Q203.13-26.4 205.16-23.98 207.18-21.55 207.18-16.7L207.18-16.7 207.18-2.3 210.88-2.3 210.88 0 199.38 0 199.38-2.3 203.08-2.3 203.08-16.35Q203.08-23.55 197.03-23.55L197.03-23.55Q195.93-23.55 194.86-23.25 193.78-22.95 192.91-22.3 192.03-21.65 191.51-20.7 190.98-19.75 190.98-18.45L190.98-18.45 190.98-2.3 194.68-2.3 194.68 0 183.18 0ZM225.68 0.6L225.68 0.6Q220.88 0.6 218.01-2.88 215.13-6.35 215.13-12.9L215.13-12.9Q215.13-19.45 218.01-22.93 220.88-26.4 225.68-26.4L225.68-26.4Q228.68-26.4 230.56-25.1 232.43-23.8 233.28-21.95L233.28-21.95 233.48-21.95 233.48-34.15 229.73-34.8 229.73-36.55 237.58-38 237.58-3.25 241.28-2.6 241.28-0.9 233.48 0.6 233.48-3.9 233.28-3.9Q232.43-2.05 230.58-0.73 228.73 0.6 225.68 0.6ZM226.88-2.25L226.88-2.25Q228.08-2.25 229.28-2.6 230.48-2.95 231.41-3.6 232.33-4.25 232.91-5.23 233.48-6.2 233.48-7.4L233.48-7.4 233.48-18.4Q233.48-19.6 232.91-20.58 232.33-21.55 231.41-22.2 230.48-22.85 229.28-23.2 228.08-23.55 226.88-23.55L226.88-23.55Q223.43-23.55 221.51-21.23 219.58-18.9 219.58-15L219.58-15 219.58-10.8Q219.58-6.9 221.51-4.58 223.43-2.25 226.88-2.25ZM257.38 0L257.38-2.3 261.13-2.3 261.13-32.6 257.38-32.6 257.38-34.9 271.98-34.9Q275.43-34.9 278.28-33.83 281.13-32.75 283.15-30.58 285.18-28.4 286.3-25.13 287.43-21.85 287.43-17.45L287.43-17.45Q287.43-13.05 286.3-9.78 285.18-6.5 283.15-4.33 281.13-2.15 278.28-1.07 275.43 0 271.98 0L271.98 0 257.38 0ZM265.43-32.45L265.43-2.45 271.53-2.45Q274.08-2.45 276.15-3.33 278.23-4.2 279.65-5.78 281.08-7.35 281.85-9.55 282.63-11.75 282.63-14.45L282.63-14.45 282.63-20.45Q282.63-23.15 281.85-25.35 281.08-27.55 279.65-29.13 278.23-30.7 276.15-31.58 274.08-32.45 271.53-32.45L271.53-32.45 265.43-32.45ZM303.87 0.6L303.87 0.6Q301.12 0.6 298.95-0.38 296.77-1.35 295.27-3.1 293.77-4.85 292.97-7.35 292.17-9.85 292.17-12.9L292.17-12.9Q292.17-15.9 293.05-18.38 293.92-20.85 295.45-22.65 296.97-24.45 299.07-25.43 301.17-26.4 303.67-26.4L303.67-26.4Q306.22-26.4 308.22-25.5 310.22-24.6 311.6-22.98 312.97-21.35 313.72-19.1 314.47-16.85 314.47-14.2L314.47-14.2 314.47-13.05 296.72-13.05 296.72-11.75Q296.72-7.5 298.85-5.05 300.97-2.6 304.52-2.6L304.52-2.6Q307.62-2.6 309.45-3.88 311.27-5.15 312.32-7.2L312.32-7.2 313.97-6.15Q313.47-4.85 312.6-3.63 311.72-2.4 310.47-1.48 309.22-0.55 307.57 0.03 305.92 0.6 303.87 0.6ZM296.72-15.95L296.72-15.35 310.17-15.35 310.17-15.85Q310.17-17.6 309.8-19.1 309.42-20.6 308.62-21.7 307.82-22.8 306.6-23.43 305.37-24.05 303.67-24.05L303.67-24.05Q301.97-24.05 300.67-23.45 299.37-22.85 298.5-21.75 297.62-20.65 297.17-19.18 296.72-17.7 296.72-15.95L296.72-15.95ZM328.52 0L319.42-23.5 316.82-23.5 316.82-25.8 327.52-25.8 327.52-23.5 323.92-23.5 330.87-4.6 331.07-4.6 337.82-23.5 334.22-23.5 334.22-25.8 343.32-25.8 343.32-23.5 340.72-23.5 331.67 0 328.52 0ZM356.87 0.6L356.87 0.6Q354.12 0.6 351.94-0.38 349.77-1.35 348.27-3.1 346.77-4.85 345.97-7.35 345.17-9.85 345.17-12.9L345.17-12.9Q345.17-15.9 346.04-18.38 346.92-20.85 348.44-22.65 349.97-24.45 352.07-25.43 354.17-26.4 356.67-26.4L356.67-26.4Q359.22-26.4 361.22-25.5 363.22-24.6 364.59-22.98 365.97-21.35 366.72-19.1 367.47-16.85 367.47-14.2L367.47-14.2 367.47-13.05 349.72-13.05 349.72-11.75Q349.72-7.5 351.84-5.05 353.97-2.6 357.52-2.6L357.52-2.6Q360.62-2.6 362.44-3.88 364.27-5.15 365.32-7.2L365.32-7.2 366.97-6.15Q366.47-4.85 365.59-3.63 364.72-2.4 363.47-1.48 362.22-0.55 360.57 0.03 358.92 0.6 356.87 0.6ZM349.72-15.95L349.72-15.35 363.17-15.35 363.17-15.85Q363.17-17.6 362.79-19.1 362.42-20.6 361.62-21.7 360.82-22.8 359.59-23.43 358.37-24.05 356.67-24.05L356.67-24.05Q354.97-24.05 353.67-23.45 352.37-22.85 351.49-21.75 350.62-20.65 350.17-19.18 349.72-17.7 349.72-15.95L349.72-15.95ZM371.47 0L371.47-2.3 375.17-2.3 375.17-34.15 371.47-34.8 371.47-36.55 379.27-38 379.27-2.3 382.97-2.3 382.97 0 371.47 0ZM398.81-1.85L398.81-1.85Q400.66-1.85 402.04-2.48 403.41-3.1 404.29-4.23 405.16-5.35 405.59-6.88 406.01-8.4 406.01-10.2L406.01-10.2 406.01-15.6Q406.01-17.4 405.59-18.93 405.16-20.45 404.29-21.58 403.41-22.7 402.04-23.33 400.66-23.95 398.81-23.95L398.81-23.95Q396.91-23.95 395.56-23.33 394.21-22.7 393.34-21.58 392.46-20.45 392.04-18.93 391.61-17.4 391.61-15.6L391.61-15.6 391.61-10.2Q391.61-8.4 392.04-6.88 392.46-5.35 393.34-4.23 394.21-3.1 395.56-2.48 396.91-1.85 398.81-1.85ZM398.81 0.6L398.81 0.6Q396.16 0.6 393.96-0.35 391.76-1.3 390.21-3.08 388.66-4.85 387.81-7.33 386.96-9.8 386.96-12.9L386.96-12.9Q386.96-15.95 387.81-18.45 388.66-20.95 390.21-22.73 391.76-24.5 393.96-25.45 396.16-26.4 398.81-26.4L398.81-26.4Q401.46-26.4 403.66-25.45 405.86-24.5 407.41-22.73 408.96-20.95 409.81-18.45 410.66-15.95 410.66-12.9L410.66-12.9Q410.66-9.8 409.81-7.33 408.96-4.85 407.41-3.08 405.86-1.3 403.66-0.35 401.46 0.6 398.81 0.6ZM414.91 10L414.91 7.7 418.61 7.7 418.61-22.55 414.91-23.2 414.91-24.9 422.71-26.4 422.71-21.9 422.91-21.9Q423.76-23.75 425.61-25.08 427.46-26.4 430.51-26.4L430.51-26.4Q435.31-26.4 438.19-22.93 441.06-19.45 441.06-12.9L441.06-12.9Q441.06-6.35 438.19-2.88 435.31 0.6 430.51 0.6L430.51 0.6Q427.51 0.6 425.64-0.7 423.76-2 422.91-3.85L422.91-3.85 422.71-3.85 422.71 7.7 427.41 7.7 427.41 10 414.91 10ZM429.31-2.25L429.31-2.25Q432.76-2.25 434.69-4.58 436.61-6.9 436.61-10.8L436.61-10.8 436.61-15Q436.61-18.9 434.69-21.23 432.76-23.55 429.31-23.55L429.31-23.55Q428.11-23.55 426.91-23.2 425.71-22.85 424.79-22.2 423.86-21.55 423.29-20.58 422.71-19.6 422.71-18.4L422.71-18.4 422.71-7.4Q422.71-6.2 423.29-5.23 423.86-4.25 424.79-3.6 425.71-2.95 426.91-2.6 428.11-2.25 429.31-2.25ZM458.01 0.6L458.01 0.6Q455.26 0.6 453.08-0.38 450.91-1.35 449.41-3.1 447.91-4.85 447.11-7.35 446.31-9.85 446.31-12.9L446.31-12.9Q446.31-15.9 447.18-18.38 448.06-20.85 449.58-22.65 451.11-24.45 453.21-25.43 455.31-26.4 457.81-26.4L457.81-26.4Q460.36-26.4 462.36-25.5 464.36-24.6 465.73-22.98 467.11-21.35 467.86-19.1 468.61-16.85 468.61-14.2L468.61-14.2 468.61-13.05 450.86-13.05 450.86-11.75Q450.86-7.5 452.98-5.05 455.11-2.6 458.66-2.6L458.66-2.6Q461.76-2.6 463.58-3.88 465.41-5.15 466.46-7.2L466.46-7.2 468.11-6.15Q467.61-4.85 466.73-3.63 465.86-2.4 464.61-1.48 463.36-0.55 461.71 0.03 460.06 0.6 458.01 0.6ZM450.86-15.95L450.86-15.35 464.31-15.35 464.31-15.85Q464.31-17.6 463.93-19.1 463.56-20.6 462.76-21.7 461.96-22.8 460.73-23.43 459.51-24.05 457.81-24.05L457.81-24.05Q456.11-24.05 454.81-23.45 453.51-22.85 452.63-21.75 451.76-20.65 451.31-19.18 450.86-17.7 450.86-15.95L450.86-15.95ZM473.36 0L473.36-2.3 477.06-2.3 477.06-22.55 473.36-23.2 473.36-24.9 481.06-26.4 481.06-21.9 481.31-21.9Q481.66-22.7 482.18-23.5 482.71-24.3 483.48-24.95 484.26-25.6 485.28-26 486.31-26.4 487.66-26.4L487.66-26.4Q489.86-26.4 491.18-25.35 492.51-24.3 492.51-22.3L492.51-22.3Q492.51-20.8 491.76-19.95 491.01-19.1 489.81-19.1L489.81-19.1Q488.46-19.1 487.66-19.83 486.86-20.55 486.86-21.7L486.86-21.7Q486.86-22.7 487.28-23.33 487.71-23.95 488.26-24.05L488.26-24.05 488.26-24.15Q488.06-24.2 487.76-24.23 487.46-24.25 487.01-24.25L487.01-24.25Q485.96-24.25 484.91-23.73 483.86-23.2 483.03-22.38 482.21-21.55 481.68-20.5 481.16-19.45 481.16-18.4L481.16-18.4 481.16-2.3 485.86-2.3 485.86 0 473.36 0Z" opacity="1" transform="matrix(1,0,0,1,0,0)" fill="#61777f" class="slogan-text-1" data-fill-palette-color="secondary" id="text-1"></path></svg></g></svg></g></svg></g></svg></g><g><svg viewBox="0 0 214.81026142860276 214.81026142860276" height="214.81026142860276" width="214.81026142860276"><g><svg></svg></g><g id="icon-0"><svg viewBox="0 0 214.81026142860276 214.81026142860276" height="214.81026142860276" width="214.81026142860276"><g><path d="M0 107.405c0-59.318 48.087-107.405 107.405-107.405 59.318 0 107.405 48.087 107.405 107.405 0 59.318-48.087 107.405-107.405 107.405-59.318 0-107.405-48.087-107.405-107.405zM107.405 203.08c52.84 0 95.675-42.835 95.675-95.675 0-52.84-42.835-95.675-95.675-95.675-52.84 0-95.675 42.835-95.675 95.675 0 52.84 42.835 95.675 95.675 95.675z" data-fill-palette-color="accent" fill="#61777f" stroke="transparent"></path></g><g transform="matrix(1,0,0,1,56.74142357070502,68.47512292512224)"><svg viewBox="0 0 101.32741428719272 77.86001557835829" height="77.86001557835829" width="101.32741428719272"><g><svg xmlns="http://www.w3.org/2000/svg" xmlns:xlink="http://www.w3.org/1999/xlink" version="1.1" x="0" y="0" viewBox="28.696 33.63 42.608000000000004 32.74" enable-background="new 0 0 100 100" xml:space="preserve" height="77.86001557835829" width="101.32741428719272" class="icon-cg-0" data-fill-palette-color="accent" id="cg-0"><g fill="#61777f" data-fill-palette-color="accent"><polygon points="48.672,37.236 45.066,33.63 28.696,50 45.066,66.37 48.672,62.764 35.909,50  " fill="#61777f" data-fill-palette-color="accent"></polygon><polygon points="59.913,36.635 57.509,34.231 41.74,50 57.509,65.769 59.913,63.365 46.548,50  " fill="#61777f" data-fill-palette-color="accent"></polygon><polygon points="71.304,36.184 69.802,34.682 54.483,50 69.802,65.318 71.304,63.816 57.488,50  " fill="#61777f" data-fill-palette-color="accent"></polygon></g></svg></g></svg></g></svg></g></svg></g></svg></g><defs></defs></svg><rect width="395.52" height="126.47899581765324" fill="none" stroke="none" visibility="hidden"></rect></g></svg></g></svg>